<svg width="185" height="40" viewBox="0 0 185 40" fill="none" xmlns="http://www.w3.org/2000/svg">
<path d="M16.5721 28.9416C16.8849 28.6293 17.0608 28.2056 17.0611 27.7637C17.0614 27.3218 16.8862 26.8978 16.574 26.585C16.4194 26.4302 16.2358 26.3073 16.0337 26.2234C15.8316 26.1395 15.6149 26.0962 15.3961 26.0961C14.9542 26.0957 14.5302 26.2709 14.2174 26.5832L12.5558 28.2449C12.2645 28.5619 12.107 28.9791 12.1162 29.4094C12.1253 29.8398 12.3003 30.25 12.6047 30.5544C12.909 30.8588 13.3192 31.0338 13.7496 31.0429C14.1799 31.052 14.5972 30.8945 14.9142 30.6033L16.5721 28.9416Z" fill="#0077E5"/>
<path d="M19.2882 32.6189C19.2878 32.2893 19.1898 31.9672 19.0066 31.6932C18.8234 31.4192 18.5632 31.2056 18.2587 31.0793C17.9543 30.953 17.6193 30.9196 17.2959 30.9834C16.9726 31.0473 16.6753 31.2054 16.4417 31.4378L14.7838 33.0995C14.471 33.4118 14.2951 33.8355 14.2948 34.2774C14.2944 34.7193 14.4696 35.1433 14.7819 35.456C15.0941 35.7688 15.5178 35.9447 15.9598 35.945C16.4017 35.9454 16.8257 35.7702 17.1384 35.4579L18.8001 33.7962C18.9549 33.6418 19.0778 33.4582 19.1615 33.2562C19.2453 33.0542 19.2883 32.8376 19.2882 32.6189Z" fill="#0077E5"/>
<path d="M21.2181 34.5302C20.9988 34.53 20.7817 34.573 20.579 34.6567C20.3764 34.7405 20.1922 34.8633 20.0371 35.0183L18.3977 36.6949C18.1655 36.9283 18.0074 37.2251 17.9435 37.5482C17.8796 37.8712 17.9126 38.2059 18.0385 38.5102C18.1643 38.8144 18.3774 39.0747 18.6508 39.2582C18.9242 39.4417 19.2458 39.5402 19.5751 39.5413C19.7943 39.5415 20.0115 39.4985 20.2142 39.4148C20.4168 39.3311 20.601 39.2082 20.7561 39.0533L22.4141 37.3916C22.6463 37.1582 22.8044 36.8613 22.8683 36.5383C22.9322 36.2152 22.8992 35.8805 22.7733 35.5763C22.6475 35.272 22.4344 35.0117 22.161 34.8283C21.8876 34.6448 21.566 34.5462 21.2367 34.5451L21.2181 34.5302Z" fill="#0077E5"/>
<path d="M48.1403 24.3738L39.6047 15.6518V6.58711H35.2269V11.1772L24.2919 0L0 24.303L2.5894 26.8924L7.64523 21.8329L12.2242 26.4118L13.1444 25.4915C13.6993 24.9334 14.4413 24.6008 15.2271 24.5578C16.0129 24.5148 16.7868 24.7646 17.3992 25.2589C18.0116 25.7532 18.4191 26.4569 18.543 27.234C18.6668 28.0112 18.4983 28.8067 18.0699 29.4669C18.829 29.5731 19.524 29.9503 20.0267 30.529C20.5294 31.1077 20.8056 31.8487 20.8046 32.6152C20.804 32.7647 20.7941 32.914 20.7748 33.0623C20.9215 33.0397 21.0697 33.0285 21.2181 33.0287C21.7986 33.0298 22.3678 33.1896 22.8639 33.4909C23.3601 33.7922 23.7644 34.2235 24.033 34.7381C24.3017 35.2527 24.4244 35.831 24.3879 36.4104C24.3514 36.9898 24.1572 37.5481 23.8261 38.025L25.1972 39.396C25.5849 39.7828 26.1101 40 26.6577 40C27.2053 40 27.7305 39.7828 28.1182 39.396C28.3121 39.2053 28.4653 38.9772 28.5684 38.7255C28.6715 38.4738 28.7224 38.2038 28.718 37.9318C28.7162 37.3865 28.5008 36.8636 28.1182 36.475L26.3298 34.6867C26.2153 34.555 26.1549 34.3848 26.161 34.2104C26.167 34.0359 26.239 33.8703 26.3624 33.7469C26.4859 33.6235 26.6515 33.5515 26.8259 33.5454C27.0004 33.5394 27.1706 33.5997 27.3023 33.7143L29.0943 35.4989C29.4814 35.8854 30.006 36.1026 30.553 36.1026C31.1 36.1026 31.6246 35.8854 32.0116 35.4989C32.2037 35.3091 32.3557 35.0827 32.4587 34.8331C32.5617 34.5836 32.6137 34.3159 32.6114 34.0459C32.6137 33.7742 32.5618 33.5048 32.4588 33.2534C32.3559 33.002 32.2038 32.7736 32.0116 32.5816L28.6137 29.1838C28.485 29.054 28.4127 28.8785 28.4127 28.6957C28.4127 28.5129 28.485 28.3374 28.6137 28.2076C28.6774 28.1435 28.7532 28.0927 28.8366 28.0579C28.9201 28.0232 29.0096 28.0054 29.0999 28.0054C29.1903 28.0054 29.2798 28.0232 29.3632 28.0579C29.4467 28.0927 29.5224 28.1435 29.5861 28.2076L32.984 31.6092C33.3714 31.9966 33.8967 32.2142 34.4445 32.2142C34.9923 32.2142 35.5177 31.9966 35.905 31.6092C36.2923 31.2219 36.51 30.6965 36.51 30.1487C36.51 29.6009 36.2923 29.0756 35.905 28.6882L28.4833 21.2703L26.7359 23.0177C25.7137 24.0431 24.3468 24.6517 22.9008 24.7254C21.4548 24.7991 20.033 24.3325 18.9119 23.4163C18.703 23.2475 18.5321 23.0365 18.4102 22.7972C18.2883 22.5579 18.2182 22.2956 18.2045 22.0274C18.1908 21.7592 18.2337 21.4911 18.3306 21.2406C18.4274 20.9901 18.576 20.7628 18.7666 20.5736L23.2785 16.0617L18.3456 11.1251L24.2881 5.18251L30.294 11.1921L19.8396 21.6466C19.8021 21.6875 19.7735 21.7357 19.7555 21.7881C19.7375 21.8406 19.7306 21.8962 19.7352 21.9515C19.7397 22.0068 19.7556 22.0605 19.7819 22.1093C19.8082 22.1582 19.8444 22.201 19.888 22.2352C20.7197 22.9106 21.7721 23.2539 22.842 23.1988C23.912 23.1438 24.9236 22.6943 25.6816 21.9372L27.809 19.8135C27.9989 19.6242 28.2561 19.5179 28.5243 19.5179C28.7925 19.5179 29.0497 19.6242 29.2396 19.8135L34.7351 25.3127C34.9227 25.5005 35.1454 25.6495 35.3906 25.7511C35.6357 25.8528 35.8985 25.9051 36.1639 25.9051C36.4293 25.9051 36.6922 25.8528 36.9373 25.7511C37.1825 25.6495 37.4052 25.5005 37.5928 25.3127L41.0093 21.8962L46.0688 26.9558L48.1403 24.3738Z" fill="#0077E5"/>
<path d="M59.5 27.2203V12.3898H66.2373C67.8475 12.3898 69.2669 12.7006 70.4958 13.322C71.7246 13.9294 72.685 14.7839 73.3771 15.8856C74.0692 16.9873 74.4153 18.2938 74.4153 19.8051C74.4153 21.3023 74.0692 22.6088 73.3771 23.7246C72.685 24.8263 71.7246 25.6879 70.4958 26.3093C69.2669 26.9167 67.8475 27.2203 66.2373 27.2203H59.5ZM62.9322 24.4025H66.0678C67.0565 24.4025 67.911 24.2189 68.6314 23.8517C69.3658 23.4703 69.9308 22.9336 70.3263 22.2415C70.7359 21.5494 70.9407 20.7373 70.9407 19.8051C70.9407 18.8588 70.7359 18.0466 70.3263 17.3686C69.9308 16.6766 69.3658 16.1469 68.6314 15.7797C67.911 15.3983 67.0565 15.2076 66.0678 15.2076H62.9322V24.4025Z" fill="black"/>
<path d="M81.7706 27.3898C80.5559 27.3898 79.4754 27.1356 78.5291 26.6271C77.5969 26.1186 76.8553 25.4266 76.3045 24.5508C75.7678 23.661 75.4994 22.6511 75.4994 21.5212C75.4994 20.3771 75.7678 19.3672 76.3045 18.4915C76.8553 17.6017 77.5969 16.9096 78.5291 16.4153C79.4754 15.9068 80.5559 15.6525 81.7706 15.6525C82.9712 15.6525 84.0446 15.9068 84.9909 16.4153C85.9373 16.9096 86.6788 17.5946 87.2155 18.4703C87.7522 19.346 88.0206 20.363 88.0206 21.5212C88.0206 22.6511 87.7522 23.661 87.2155 24.5508C86.6788 25.4266 85.9373 26.1186 84.9909 26.6271C84.0446 27.1356 82.9712 27.3898 81.7706 27.3898ZM81.7706 24.678C82.3214 24.678 82.8158 24.5508 83.2536 24.2966C83.6915 24.0424 84.0375 23.6822 84.2918 23.2161C84.546 22.7359 84.6731 22.1709 84.6731 21.5212C84.6731 20.8573 84.546 20.2924 84.2918 19.8263C84.0375 19.3602 83.6915 19 83.2536 18.7458C82.8158 18.4915 82.3214 18.3644 81.7706 18.3644C81.2197 18.3644 80.7254 18.4915 80.2875 18.7458C79.8497 19 79.4966 19.3602 79.2282 19.8263C78.974 20.2924 78.8469 20.8573 78.8469 21.5212C78.8469 22.1709 78.974 22.7359 79.2282 23.2161C79.4966 23.6822 79.8497 24.0424 80.2875 24.2966C80.7254 24.5508 81.2197 24.678 81.7706 24.678Z" fill="black"/>
<path d="M104.403 15.6525C105.307 15.6525 106.105 15.8362 106.798 16.2034C107.504 16.5565 108.055 17.1073 108.45 17.8559C108.86 18.5904 109.065 19.5367 109.065 20.6949V27.2203H105.759V21.2034C105.759 20.2853 105.569 19.6073 105.187 19.1695C104.806 18.7316 104.269 18.5127 103.577 18.5127C103.097 18.5127 102.666 18.6257 102.285 18.8517C101.903 19.0636 101.607 19.3884 101.395 19.8263C101.183 20.2641 101.077 20.822 101.077 21.5V27.2203H97.7721V21.2034C97.7721 20.2853 97.5815 19.6073 97.2001 19.1695C96.8329 18.7316 96.3032 18.5127 95.6111 18.5127C95.1309 18.5127 94.7001 18.6257 94.3188 18.8517C93.9374 19.0636 93.6408 19.3884 93.4289 19.8263C93.2171 20.2641 93.1111 20.822 93.1111 21.5V27.2203H89.806V15.822H92.9628V18.9364L92.3696 18.0254C92.7651 17.2486 93.323 16.6624 94.0433 16.2669C94.7778 15.8573 95.6111 15.6525 96.5433 15.6525C97.5885 15.6525 98.4995 15.9209 99.2764 16.4576C100.067 16.9802 100.59 17.7853 100.844 18.8729L99.6789 18.5551C100.06 17.6653 100.668 16.959 101.501 16.4364C102.348 15.9138 103.316 15.6525 104.403 15.6525Z" fill="black"/>
<path d="M116.264 27.3898C114.922 27.3898 113.877 27.0508 113.129 26.3729C112.38 25.6808 112.006 24.6568 112.006 23.3008V13.3008H115.311V23.2585C115.311 23.7387 115.438 24.113 115.692 24.3814C115.946 24.6356 116.293 24.7627 116.73 24.7627C117.253 24.7627 117.698 24.6215 118.065 24.339L118.955 26.6695C118.616 26.9096 118.206 27.0932 117.726 27.2203C117.26 27.3333 116.773 27.3898 116.264 27.3898ZM110.247 18.6186V16.0763H118.15V18.6186H110.247Z" fill="black"/>
<path d="M123.273 27.2203L118.485 15.822H121.896L125.879 25.6314H124.184L128.315 15.822H131.493L126.684 27.2203H123.273Z" fill="black"/>
<path d="M137.531 27.3898C136.317 27.3898 135.236 27.1356 134.29 26.6271C133.358 26.1186 132.616 25.4266 132.065 24.5508C131.529 23.661 131.26 22.6511 131.26 21.5212C131.26 20.3771 131.529 19.3672 132.065 18.4915C132.616 17.6017 133.358 16.9096 134.29 16.4153C135.236 15.9068 136.317 15.6525 137.531 15.6525C138.732 15.6525 139.805 15.9068 140.752 16.4153C141.698 16.9096 142.44 17.5946 142.976 18.4703C143.513 19.346 143.781 20.363 143.781 21.5212C143.781 22.6511 143.513 23.661 142.976 24.5508C142.44 25.4266 141.698 26.1186 140.752 26.6271C139.805 27.1356 138.732 27.3898 137.531 27.3898ZM137.531 24.678C138.082 24.678 138.577 24.5508 139.015 24.2966C139.452 24.0424 139.798 23.6822 140.053 23.2161C140.307 22.7359 140.434 22.1709 140.434 21.5212C140.434 20.8573 140.307 20.2924 140.053 19.8263C139.798 19.3602 139.452 19 139.015 18.7458C138.577 18.4915 138.082 18.3644 137.531 18.3644C136.981 18.3644 136.486 18.4915 136.048 18.7458C135.611 19 135.257 19.3602 134.989 19.8263C134.735 20.2924 134.608 20.8573 134.608 21.5212C134.608 22.1709 134.735 22.7359 134.989 23.2161C135.257 23.6822 135.611 24.0424 136.048 24.2966C136.486 24.5508 136.981 24.678 137.531 24.678Z" fill="black"/>
<path d="M146.697 31.5C146.104 31.5 145.518 31.4082 144.939 31.2246C144.36 31.041 143.887 30.7867 143.519 30.4619L144.727 28.1102C144.981 28.3362 145.271 28.5127 145.596 28.6398C145.935 28.7669 146.266 28.8305 146.591 28.8305C147.057 28.8305 147.425 28.7175 147.693 28.4915C147.976 28.2797 148.23 27.9195 148.456 27.411L149.049 26.0127L149.303 25.6525L153.392 15.822H156.57L151.422 27.9195C151.055 28.8376 150.631 29.5579 150.151 30.0805C149.685 30.6031 149.162 30.9703 148.583 31.1822C148.018 31.3941 147.389 31.5 146.697 31.5ZM148.646 27.6653L143.562 15.822H146.973L150.913 25.3559L148.646 27.6653Z" fill="black"/>
<path d="M158.062 27.3898C157.497 27.3898 157.01 27.1992 156.6 26.8178C156.205 26.4223 156.007 25.9209 156.007 25.3136C156.007 24.7062 156.205 24.2189 156.6 23.8517C157.01 23.4703 157.497 23.2797 158.062 23.2797C158.641 23.2797 159.129 23.4703 159.524 23.8517C159.92 24.2189 160.117 24.7062 160.117 25.3136C160.117 25.9209 159.92 26.4223 159.524 26.8178C159.129 27.1992 158.641 27.3898 158.062 27.3898Z" fill="black"/>
<path d="M164.667 24.8898L164.751 20.8644L170.069 15.822H174.01L168.904 21.0127L167.188 22.411L164.667 24.8898ZM161.933 27.2203V11.5H165.239V27.2203H161.933ZM170.429 27.2203L166.573 22.4322L168.65 19.8686L174.433 27.2203H170.429Z" fill="black"/>
<path d="M174.443 27.2203V25.2288L181.18 17.2627L181.753 18.3644H174.592V15.822H184.422V17.8136L177.685 25.7797L177.092 24.678H184.613V27.2203H174.443Z" fill="black"/>
</svg>
