<svg width="168" height="212" viewBox="0 0 168 212" fill="none" xmlns="http://www.w3.org/2000/svg">
<path d="M97.506 142.453C105.284 146.376 114.85 148.561 125.591 147.055C179.761 139.457 184.889 44.7801 107.494 1.99999M97.506 142.453C79.0676 133.153 70.6842 114.087 80.5551 111.286C89.9221 108.628 97.1208 123.444 97.506 142.453ZM97.506 142.453C98.055 169.543 82.4187 204.846 43.902 209.529C29.8206 211.241 13.4325 208.431 2 198.712M2 198.712C2 198.712 5.96964 200.668 11.7036 198.01M2 198.712C2 198.712 4.64643 202.44 3.76429 208.643" stroke="black" stroke-width="3" stroke-linecap="round" stroke-linejoin="round"/>
</svg>
