<svg width="24" height="24" viewBox="0 0 24 24" fill="none" xmlns="http://www.w3.org/2000/svg">
<path d="M11.9231 12.6923C13.4525 12.6923 14.6923 11.4525 14.6923 9.92308C14.6923 8.39367 13.4525 7.15385 11.9231 7.15385C10.3937 7.15385 9.15385 8.39367 9.15385 9.92308C9.15385 11.4525 10.3937 12.6923 11.9231 12.6923Z" stroke="#0077E5" stroke-width="1.5" stroke-linecap="round" stroke-linejoin="round"/>
<path d="M18.8462 9.92308C18.8462 16.1538 11.9231 21 11.9231 21C11.9231 21 5 16.1538 5 9.92308C5 8.08696 5.72939 6.32605 7.02772 5.02772C8.32605 3.72939 10.087 3 11.9231 3C13.7592 3 15.5201 3.72939 16.8184 5.02772C18.1168 6.32605 18.8462 8.08696 18.8462 9.92308Z" stroke="#0077E5" stroke-width="1.5" stroke-linecap="round" stroke-linejoin="round"/>
</svg>
